<svg xmlns="http://www.w3.org/2000/svg" xmlns:xlink="http://www.w3.org/1999/xlink" width="375" height="812" viewBox="0 0 375 812">
  <defs>
    <clipPath id="clip-NUI_-_Menu_Mobile">
      <rect width="375" height="812"/>
    </clipPath>
  </defs>
  <g id="NUI_-_Menu_Mobile" data-name="NUI - Menu Mobile" clip-path="url(#clip-NUI_-_Menu_Mobile)">
    <rect width="375" height="812" fill="#fff"/>
    <rect id="Rectángulo_37" data-name="Rectángulo 37" width="375" height="812" fill="#c491a5"/>
    <g id="Grupo_1089" data-name="Grupo 1089">
      <path id="Trazado_893" data-name="Trazado 893" d="M2424.82-454.5l20.881,20.881" transform="translate(-2102 479)" fill="none" stroke="#fff" stroke-linecap="round" stroke-width="2"/>
      <path id="Trazado_894" data-name="Trazado 894" d="M2424.82-454.5l20.881,20.881" transform="translate(777.323 2470.198) rotate(-90)" fill="none" stroke="#fff" stroke-linecap="round" stroke-width="2"/>
    </g>
    <text id="Nosotros_Portfolio_Servicios_Contacto" data-name="Nosotros
Portfolio 
Servicios
Contacto" transform="translate(44 536)" fill="#efe1e6" font-size="30" font-family="Lato-Regular, Lato" letter-spacing="-0.03em"><tspan x="0" y="0">Nosotros</tspan><tspan x="0" y="49">Portfolio </tspan><tspan x="0" y="98">Servicios</tspan><tspan x="0" y="147">Contacto</tspan></text>
    <line id="Línea_52" data-name="Línea 52" x2="284" transform="translate(44.5 720.5)" fill="none" stroke="#efe1e6" stroke-width="3"/>
    <g id="Grupo_1090" data-name="Grupo 1090" transform="translate(-26 391.725)">
      <path id="Trazado_895" data-name="Trazado 895" d="M2130.643-398.216v-59.366h34.981v59.366h-12.418v-47.215h-10.9v47.215Z" transform="translate(-2059 479)" fill="#fff"/>
      <path id="Trazado_896" data-name="Trazado 896" d="M0,59.366V0H34.981V59.366H22.563V12.15H11.66V59.366Z" transform="translate(146.509 80.784) rotate(180)" fill="#fff"/>
      <path id="Trazado_897" data-name="Trazado 897" d="M0,0H12.418V59.366H0Z" transform="translate(163.76 80.784) rotate(180)" fill="#fff"/>
    </g>
    <g id="Grupo_1087" data-name="Grupo 1087" transform="translate(-68.701 -2896)" opacity="0.48">
      <path id="Trazado_42" data-name="Trazado 42" d="M47.326,32.493h-2.94V43.264H39.931V32.493H37.812V28.708h2.119v-2.45a4.177,4.177,0,0,1,4.494-4.495l3.3.014v3.674H45.331a.907.907,0,0,0-.945,1.032v2.228h3.329Z" transform="translate(75.889 3626.237)" fill="#fff"/>
      <g id="Grupo_527" data-name="Grupo 527" transform="translate(244.486 3648)">
        <path id="Trazado_47" data-name="Trazado 47" d="M39,40.563c-1.34-.1-1.9-.768-2.955-1.406-.578,3.031-1.284,5.937-3.375,7.455-.646-4.582.948-8.023,1.688-11.675-1.262-2.124.152-6.4,2.813-5.345,3.275,1.3-2.836,7.9,1.267,8.722,4.283.861,6.031-7.431,3.375-10.129C37.971,24.29,30.638,28.1,31.54,33.67c.22,1.363,1.628,1.777.563,3.657-2.456-.544-3.189-2.481-3.095-5.064.152-4.227,3.8-7.187,7.456-7.6,4.625-.518,8.967,1.7,9.566,6.049C46.7,35.627,43.942,40.945,39,40.563Z" transform="translate(-29 -24.593)" fill="#fff"/>
      </g>
      <path id="Trazado_49" data-name="Trazado 49" d="M48.731,36.3a9.672,9.672,0,0,1-2.784.762,4.861,4.861,0,0,0,2.132-2.681A9.7,9.7,0,0,1,45,35.558,4.852,4.852,0,0,0,36.74,39.98a13.761,13.761,0,0,1-9.992-5.066,4.853,4.853,0,0,0,1.5,6.472,4.814,4.814,0,0,1-2.2-.607c0,.021,0,.041,0,.061a4.85,4.85,0,0,0,3.889,4.753,4.867,4.867,0,0,1-2.189.084,4.853,4.853,0,0,0,4.528,3.366A9.786,9.786,0,0,1,25.1,51.052,13.786,13.786,0,0,0,46.326,39.437c0-.21,0-.419-.014-.627A9.83,9.83,0,0,0,48.731,36.3Z" transform="translate(123.456 3615.381)" fill="#fff"/>
      <g id="instagram-logo" transform="translate(197.483 3648)">
        <path id="Trazado_51" data-name="Trazado 51" d="M15.568,0H5.933A5.94,5.94,0,0,0,0,5.934v9.634A5.94,5.94,0,0,0,5.933,21.5h9.634A5.94,5.94,0,0,0,21.5,15.568V5.934A5.94,5.94,0,0,0,15.568,0Zm4.026,15.568a4.031,4.031,0,0,1-4.026,4.026H5.933a4.03,4.03,0,0,1-4.026-4.026V5.934A4.03,4.03,0,0,1,5.933,1.908h9.634a4.031,4.031,0,0,1,4.026,4.026v9.634Z" transform="translate(0 0)" fill="#fff"/>
        <path id="Trazado_52" data-name="Trazado 52" d="M46.508,40.97a5.54,5.54,0,1,0,5.54,5.54A5.547,5.547,0,0,0,46.508,40.97Zm0,9.173a3.633,3.633,0,1,1,3.633-3.632A3.637,3.637,0,0,1,46.508,50.143Z" transform="translate(-35.758 -35.759)" fill="#fff"/>
        <path id="Trazado_53" data-name="Trazado 53" d="M120.32,28.251a1.4,1.4,0,1,0,.989.41A1.4,1.4,0,0,0,120.32,28.251Z" transform="translate(-103.797 -24.658)" fill="#fff"/>
      </g>
    </g>
  </g>
</svg>
